<svg aria-hidden="true" style="width:0;height:0;position:absolute;overflow:hidden" xmlns="http://www.w3.org/2000/svg"><defs><symbol id="icon-minimal" viewBox="0 0 241 32"><path fill="#fff" style="fill:var(--color1,#fff)" d="M0 31.964V0h5.992l14.795 10.372h.226L35.808 0H41.8v31.964h-7.153V8.941l-10.148 6.795v16.228h-7.153V15.736L7.153 8.941v23.023H0zm48.514 0V0h7.153v31.964h-7.153zm13.85 0V0h7.243l22.62 22.978V0h7.153v31.964h-7.24L69.514 8.941v23.023h-7.153zm43.712 0V0h7.153v31.964h-7.153zm13.851 0V0h5.992l14.797 10.372h.224L155.737 0h5.992v31.964h-7.153V8.941l-10.15 6.795v16.228h-7.153V15.736L127.08 8.941v23.023h-7.153zm45.833 0L180.154 0h11.042l14.396 31.964h-7.78l-3.04-6.75h-18.195l-3.04 6.75h-7.778zm13.412-12.563h13.009L185.967 5.59h-.584l-6.212 13.813zm30.451 12.563V0h7.153v26.153h23.381v5.811h-30.534z"/></symbol><symbol id="icon-youtube" viewBox="0 0 41 32"><path fill="#fff" style="fill:var(--color1,#fff)" d="m27.072 14.803-8.571-5.714a1.477 1.477 0 0 0-1.474-.067l.008-.004a1.43 1.43 0 0 0-.75 1.257v.011-.001 11.441c0 .54.3 1.011.742 1.253l.007.004c.211.105.443.16.679.16.279-.003.551-.083.786-.232l8.571-5.714a1.429 1.429 0 0 0 .005-2.39l-.005-.003zm-7.929 4.251v-6.107l4.571 3.054-4.571 3.054zM39.554 5.607a4.215 4.215 0 0 0-2.561-2.901l-.029-.01C30.857.339 21.107.358 20.571.358S10.285.34 4.178 2.696a4.214 4.214 0 0 0-2.582 2.882l-.006.029C1.125 7.375.572 10.624.572 16c0 5.375.553 8.625 1.017 10.393a4.215 4.215 0 0 0 2.561 2.901l.029.01c5.857 2.267 15.035 2.339 16.269 2.339h.249c1.232 0 10.411-.072 16.269-2.339a4.214 4.214 0 0 0 2.582-2.882l.006-.029c.465-1.768 1.018-5.017 1.018-10.393 0-5.375-.553-8.625-1.017-10.393zM36.785 25.68a1.398 1.398 0 0 1-.831.96l-.009.003c-5.659 2.179-15.267 2.143-15.374 2.143h-.018c-.089 0-9.696.037-15.357-2.143a1.402 1.402 0 0 1-.837-.954l-.002-.01c-.43-1.626-.929-4.609-.929-9.68 0-5.072.501-8.054.929-9.679.111-.442.422-.795.83-.96l.009-.003c5.447-2.09 14.589-2.143 15.339-2.143h.035c.107 0 9.714-.037 15.375 2.142.417.168.729.521.838.955l.002.01c.427 1.625.928 4.608.928 9.679 0 5.072-.501 8.054-.929 9.679z"/></symbol><symbol id="icon-instagram" viewBox="0 0 32 32"><path fill="#fff" style="fill:var(--color1,#fff)" d="M16 8.5a7.5 7.5 0 0 0 0 15 7.5 7.5 0 0 0 0-15zM16 21a5 5 0 1 1 5-5 5.016 5.016 0 0 1-4.999 5H16zM22.875.375H9.125a8.75 8.75 0 0 0-8.75 8.75v13.75a8.75 8.75 0 0 0 8.75 8.75h13.75a8.75 8.75 0 0 0 8.75-8.75V9.125a8.75 8.75 0 0 0-8.75-8.75zm6.25 22.5a6.25 6.25 0 0 1-6.25 6.25H9.125a6.25 6.25 0 0 1-6.25-6.25V9.125a6.25 6.25 0 0 1 6.25-6.25h13.75a6.25 6.25 0 0 1 6.25 6.25v13.75zM26 7.875a1.874 1.874 0 1 1-3.75 0 1.874 1.874 0 1 1 3.75 0z"/></symbol><symbol id="icon-facebook" viewBox="0 0 32 32"><path fill="#fff" style="fill:var(--color1,#fff)" d="M31.294 16C31.294 7.553 24.447.706 16 .706S.706 7.553.706 16 7.553 31.294 16 31.294c8.443-.008 15.286-6.851 15.294-15.293V16zM17.176 28.883V19.53h3.529a1.176 1.176 0 1 0 0-2.352h-3.529v-3.529c0-1.3 1.053-2.353 2.353-2.353h2.353a1.176 1.176 0 1 0 0-2.352h-2.353a4.721 4.721 0 0 0-4.706 4.705v3.53h-3.529a1.176 1.176 0 1 0 0 2.352h3.529v9.353C8.2 28.261 3.058 22.729 3.058 15.996c0-7.147 5.794-12.941 12.941-12.941S28.94 8.849 28.94 15.996c0 6.733-5.142 12.265-11.713 12.884l-.052.004z"/></symbol><symbol id="icon-close" viewBox="0 0 32 32"><path fill="none" stroke="#0a224a" style="stroke:var(--color1,#0a224a)" stroke-linejoin="round" stroke-linecap="round" stroke-width="2.4" d="M24 8 8 24M8 8l16 16"/></symbol><symbol id="icon-align" viewBox="0 0 32 32"><path fill="none" stroke="#0a224a" style="stroke:var(--color1,#0a224a)" stroke-linejoin="round" stroke-linecap="round" stroke-width="2.4" d="M28 13.333H4M28 8H4M28 18.667H4M28 24H4"/></symbol><symbol id="icon-logo" viewBox="0 0 241 32"><path fill="#0a224a" style="fill:var(--color1,#0a224a)" d="M0 31.965V0h5.991l14.798 10.372h.224L35.811 0h5.99v31.965h-7.153V8.941L24.5 15.736v16.228h-7.153V15.736L7.154 8.941v23.024H.001zM48.515 31.965V0h7.153v31.965h-7.153zM62.365 31.965V0h7.242l22.621 22.979V0h7.153v31.965h-7.242L69.518 8.941v23.024h-7.153zM106.077 31.965V0h7.153v31.965h-7.153zM119.927 31.965V0h5.991l14.798 10.372h.223L155.737 0h5.991v31.965h-7.153V8.941l-10.148 6.795v16.228h-7.153V15.736l-10.193-6.795v23.024h-7.153zM165.759 31.965 180.154 0h11.042l14.396 31.965h-7.78l-3.04-6.751h-18.195l-3.04 6.751h-7.779zm13.412-12.563h13.01l-6.214-13.814h-.581l-6.214 13.814zM209.623 31.965V0h7.153v26.153h23.381v5.812h-30.534z"/></symbol></defs></svg>